<?xml version="1.0" encoding="UTF-8"?>
<svg xmlns="http://www.w3.org/2000/svg" viewBox="0 0 632 599" width="632" height="599">
<path d="M33.73 0.09C77 0.09 120.26 0.09 163.53 0.09C166.91 0.09 170.29 0.09 173.68 0.09C222.49 0.09 271.31 0.09 320.12 0.09C322.37 0.09 324.62 0.09 326.86 0.09C339.06 0.09 351.26 0.09 363.46 0.09C365.7 0.09 367.93 0.09 370.17 0.09C387.81 0.09 405.45 0.09 423.1 0.09C425.67 0.09 428.24 0.09 430.82 0.09C464.54 0.09 498.27 0.09 532 0.09C535.59 0.09 539.17 0.09 542.76 0.09C547.01 0.09 551.26 0.09 555.51 0.09C560.38 0.09 565.25 0.09 570.12 0.09C573.31 0.09 576.5 0.09 579.69 0.09C584.79 0.09 589.9 0.09 595 0.09C596.31 0.09 597.63 0.09 598.94 0.09C601.83 1.32 605.13 1.14 608.11 2.11C614.69 4.22 621.61 9.4 625.52 15.19C627.22 17.7 631.86 29.24 631.91 29.29C631.91 209.75 631.91 390.21 631.91 570.67C630.66 571.73 628.94 579.1 627.72 581.4C624.41 587.67 617.74 593.09 611.32 595.76C600.79 600.14 580.14 597.95 568.24 597.93C537.71 597.88 507.19 597.93 476.67 597.93C368.06 597.94 259.44 598.31 150.84 597.94C119.75 597.83 88.67 598.02 57.58 597.94C45.24 597.9 27.33 600.5 16.61 593.79C10.76 590.13 6.25 585.28 3.13 579.17C1.74 576.46 1.94 571.84 0.09 569.73C0.09 389.94 0.09 210.15 0.09 30.37C1.53 28.99 1.51 25.35 2.13 23.32C3.28 19.53 5.71 15.52 8.2 12.41C12.48 7.06 19.81 3.09 26.24 1.27C28.73 0.56 31.31 1.16 33.73 0.09ZM129.6 72.07C123.92 73.82 117.86 74.65 112.3 77.23C111.62 77.54 111.24 78.44 110.58 78.82C100.14 84.78 90.04 94.88 86.1 106.56C84.22 112.13 83.39 118.23 82.04 123.89C80.94 128.54 82.78 134.44 83.96 138.65C84.78 141.55 85.14 144.51 86.1 147.37C92.22 165.63 110.04 177.49 127.78 181.02C132.7 182 140.01 183.18 145.19 181.89C170.23 175.67 188.28 159.89 191.96 133.4C192.6 128.87 191.89 124.09 191.02 119.93C190.73 118.51 191.33 116.93 190.89 115.54C184.56 95.57 170.82 79.17 149.82 73.94C144.53 72.62 135.28 70.33 129.6 72.07ZM487.49 72.12C483.61 73.43 479.34 73.63 475.39 75.16C461.84 80.4 447.71 93.49 443.14 107.61C441.86 111.55 441.34 115.65 440.1 119.52C438.65 124.07 440.19 130.83 440.98 135.12C441.21 136.38 440.75 137.76 441.04 139.02C444.23 152.86 453.5 166.06 465.77 173.27C468.91 175.11 472.17 177.81 475.71 178.92C477.55 179.49 479.66 179.45 481.47 180.07C487.01 181.96 496.93 183.3 503.05 181.92C518.94 178.34 533.94 170.31 542.17 155.43C543.28 153.44 545.03 151.73 545.83 149.55C546.77 146.99 547.17 144.25 548.07 141.65C550.1 135.79 551.26 127.59 549.98 121.07C545.01 95.7 528.78 77.86 503.09 72.97C498.85 72.16 491.98 70.6 487.49 72.12ZM129.54 220.13C124.87 221.57 120.17 222.55 115.51 224.12C103.46 228.18 90.45 242.66 86.17 254.36C83.98 260.35 83.62 266.74 82.06 272.77C81.42 275.25 82.32 277.45 82.93 279.6C83.43 281.33 82.61 283.34 83.06 285.08C84 288.67 85.6 291.92 86.85 295.38C91.9 309.33 103.3 321.26 117.34 326.7C120.24 327.83 123.37 328.03 126.29 328.98C130.07 330.22 135.43 331.63 139.59 330.86C154.41 328.13 171.63 323.31 180.26 309.22C182.25 305.97 185.47 303.17 186.83 299.53C188.97 293.74 190.36 288.02 191.94 282.2C193.12 277.82 192.09 271.15 191.06 267.1C190.79 266.03 191.21 264.85 190.94 263.78C189.91 259.7 188.28 255.57 186.9 251.51C185.67 247.89 182.43 244.9 180.36 241.78C173.14 230.88 161.17 225.03 149.5 221.07C148.33 220.67 146.99 221.19 145.8 220.87C141.52 219.72 134.04 218.73 129.54 220.13ZM487.42 220.17C484.52 221.11 481.38 221.11 478.49 222.09C474.16 223.55 469.52 225.89 465.51 228.1C462.47 229.79 460.1 232.39 457.59 234.86C456.88 235.56 455.78 235.72 455.19 236.38C447.11 245.35 442.84 256.39 440.05 267.76C438.85 272.68 440.04 279.4 440.98 283.99C441.48 286.45 441.4 288.84 442.11 291.25C446.96 307.5 460.47 321.78 476.41 327.74C478.52 328.53 481.06 328.38 483.24 328.95C486.97 329.92 494.03 331.77 498 330.89C502.96 329.79 508.64 329.48 513.52 327.79C515.22 327.2 516.92 325.87 518.54 325.03C522.04 323.22 525.43 321.64 528.77 319.59C530.47 318.54 531.93 316.49 533.35 315.08C542.51 305.94 547.53 295.13 549.98 282.84C551.02 277.63 550.04 270.82 549.03 265.97C548.8 264.9 549.21 263.73 548.9 262.66C544.74 248.08 535.88 235.44 522.43 227.78C520.41 226.63 518.8 224.9 516.49 224.12C513.55 223.13 510.58 222.73 507.63 221.83C502.51 220.27 492.93 218.39 487.42 220.17ZM129.06 369.92C101.6 375.24 86.14 395.54 82.02 422.18C81.16 427.74 82.63 433.58 83.97 438.64C85.01 442.56 85.84 446.38 87.11 450.22C87.86 452.47 89.56 454.17 90.72 456.14C98.45 469.37 110.31 478.51 124.98 481.92C130.09 483.1 136.28 484.98 141.85 483.86C145.28 483.17 149.06 482.82 152.4 481.8C165.04 477.96 178.29 468.17 184.84 456.37C188.35 450.03 190.15 442.94 191.94 436.13C193.14 431.57 192.19 421.4 191.07 417.09C190.4 414.53 190.68 411.88 189.82 409.36C185.49 396.73 176.55 384.01 164.7 377.16C159.97 374.43 154.51 372.75 149.53 371.04C148.35 370.64 147 371.16 145.81 370.84C141.15 369.58 134.06 368.95 129.06 369.92ZM486.94 369.93C459.82 376 445.17 392.89 440.01 419.95C439.1 424.74 439.78 431.28 440.93 435.69C441.56 438.1 441.45 440.54 442.04 442.95C443.58 449.18 447.05 455.14 450.29 460.66C451.07 461.99 452.83 462.71 453.62 464.02C455.3 466.82 457.01 468.44 459.76 470.21C462.12 471.72 463.8 474.15 466.23 475.57C477.18 482.01 488.79 485.01 501.39 482.89C502.95 482.63 504.75 483.26 506.28 482.84C521.46 478.72 534.21 469.84 542.34 456.09C543.43 454.24 544.95 452.62 545.76 450.58C548.67 443.26 549.64 435.42 550.99 427.78C551.44 425.2 549.59 418.58 549.03 415.96C548.8 414.89 549.21 413.72 548.91 412.65C543.09 391.81 528.76 377.88 508.52 371.03C507.33 370.63 505.98 371.16 504.78 370.83C500 369.52 492.05 368.78 486.94 369.93Z" fill="#000000" fill-rule="evenodd" stroke="#000000" stroke-width="0.25" stroke-linejoin="round"/>
<path d="M163.53 0.09C166.91 0.09 170.29 0.09 173.68 0.09C170.29 0.09 166.91 0.09 163.53 0.09ZM320.12 0.09C322.37 0.09 324.62 0.09 326.86 0.09C324.62 0.09 322.37 0.09 320.12 0.09ZM363.46 0.09C365.7 0.09 367.93 0.09 370.17 0.09C367.93 0.09 365.7 0.09 363.46 0.09ZM423.1 0.09C425.67 0.09 428.24 0.09 430.82 0.09C428.24 0.09 425.67 0.09 423.1 0.09ZM532 0.09C535.59 0.09 539.17 0.09 542.76 0.09C539.17 0.09 535.59 0.09 532 0.09ZM555.51 0.09C560.38 0.09 565.25 0.09 570.12 0.09C565.25 0.09 560.38 0.09 555.51 0.09ZM579.69 0.09C584.79 0.09 589.9 0.09 595 0.09C589.9 0.09 584.79 0.09 579.69 0.09Z" fill="#ffffff" fill-rule="evenodd" stroke="#ffffff" stroke-width="0.25" stroke-linejoin="round"/>
</svg>